<mxfile host="app.diagrams.net" agent="Mozilla/5.0 (Windows NT 10.0; Win64; x64) AppleWebKit/537.36 (KHTML, like Gecko) Chrome/137.0.0.0 Safari/537.36" version="27.1.5">
  <diagram name="第 1 页" id="mUwKp_V3hV3s-i5yXsVr">
    <mxGraphModel dx="1426" dy="743" grid="1" gridSize="10" guides="1" tooltips="1" connect="1" arrows="1" fold="1" page="1" pageScale="1" pageWidth="827" pageHeight="1169" math="0" shadow="0">
      <root>
        <mxCell id="0" />
        <mxCell id="1" parent="0" />
        <mxCell id="Uqcx5umUWvrtVey-KFYX-21" style="rounded=0;orthogonalLoop=1;jettySize=auto;html=1;exitX=0.855;exitY=0.145;exitDx=0;exitDy=0;exitPerimeter=0;startArrow=classicThin;startFill=1;endArrow=oval;endFill=1;" parent="1" source="Uqcx5umUWvrtVey-KFYX-1" edge="1">
          <mxGeometry relative="1" as="geometry">
            <mxPoint x="600" y="100" as="targetPoint" />
          </mxGeometry>
        </mxCell>
        <mxCell id="Uqcx5umUWvrtVey-KFYX-1" value="" style="verticalLabelPosition=bottom;verticalAlign=top;html=1;shape=mxgraph.flowchart.or;" parent="1" vertex="1">
          <mxGeometry x="379" y="160" width="70" height="70" as="geometry" />
        </mxCell>
        <mxCell id="Uqcx5umUWvrtVey-KFYX-2" value="" style="verticalLabelPosition=bottom;verticalAlign=top;html=1;shape=mxgraph.flowchart.summing_function;" parent="1" vertex="1">
          <mxGeometry x="150" y="70" width="70" height="70" as="geometry" />
        </mxCell>
        <mxCell id="Uqcx5umUWvrtVey-KFYX-3" value="" style="verticalLabelPosition=bottom;verticalAlign=top;html=1;shape=mxgraph.flowchart.or;" parent="1" vertex="1">
          <mxGeometry x="379" y="310" width="70" height="70" as="geometry" />
        </mxCell>
        <mxCell id="Uqcx5umUWvrtVey-KFYX-4" value="" style="verticalLabelPosition=bottom;verticalAlign=top;html=1;shape=mxgraph.flowchart.summing_function;" parent="1" vertex="1">
          <mxGeometry x="150" y="390" width="70" height="70" as="geometry" />
        </mxCell>
        <mxCell id="Uqcx5umUWvrtVey-KFYX-5" value="" style="verticalLabelPosition=bottom;verticalAlign=top;html=1;shape=mxgraph.flowchart.or;" parent="1" vertex="1">
          <mxGeometry x="959" y="160" width="70" height="70" as="geometry" />
        </mxCell>
        <mxCell id="Uqcx5umUWvrtVey-KFYX-6" value="" style="verticalLabelPosition=bottom;verticalAlign=top;html=1;shape=mxgraph.flowchart.summing_function;" parent="1" vertex="1">
          <mxGeometry x="730" y="70" width="70" height="70" as="geometry" />
        </mxCell>
        <mxCell id="Uqcx5umUWvrtVey-KFYX-7" value="" style="verticalLabelPosition=bottom;verticalAlign=top;html=1;shape=mxgraph.flowchart.or;" parent="1" vertex="1">
          <mxGeometry x="959" y="310" width="70" height="70" as="geometry" />
        </mxCell>
        <mxCell id="Uqcx5umUWvrtVey-KFYX-8" value="" style="verticalLabelPosition=bottom;verticalAlign=top;html=1;shape=mxgraph.flowchart.summing_function;" parent="1" vertex="1">
          <mxGeometry x="730" y="390" width="70" height="70" as="geometry" />
        </mxCell>
        <mxCell id="Uqcx5umUWvrtVey-KFYX-9" value="" style="verticalLabelPosition=bottom;verticalAlign=top;html=1;shape=mxgraph.flowchart.or;" parent="1" vertex="1">
          <mxGeometry x="399" y="810" width="70" height="70" as="geometry" />
        </mxCell>
        <mxCell id="Uqcx5umUWvrtVey-KFYX-10" value="" style="verticalLabelPosition=bottom;verticalAlign=top;html=1;shape=mxgraph.flowchart.summing_function;" parent="1" vertex="1">
          <mxGeometry x="170" y="720" width="70" height="70" as="geometry" />
        </mxCell>
        <mxCell id="Uqcx5umUWvrtVey-KFYX-11" value="" style="verticalLabelPosition=bottom;verticalAlign=top;html=1;shape=mxgraph.flowchart.or;" parent="1" vertex="1">
          <mxGeometry x="399" y="960" width="70" height="70" as="geometry" />
        </mxCell>
        <mxCell id="Uqcx5umUWvrtVey-KFYX-12" value="" style="verticalLabelPosition=bottom;verticalAlign=top;html=1;shape=mxgraph.flowchart.summing_function;" parent="1" vertex="1">
          <mxGeometry x="170" y="1040" width="70" height="70" as="geometry" />
        </mxCell>
        <mxCell id="Uqcx5umUWvrtVey-KFYX-13" value="" style="verticalLabelPosition=bottom;verticalAlign=top;html=1;shape=mxgraph.flowchart.or;" parent="1" vertex="1">
          <mxGeometry x="979" y="810" width="70" height="70" as="geometry" />
        </mxCell>
        <mxCell id="Uqcx5umUWvrtVey-KFYX-14" value="" style="verticalLabelPosition=bottom;verticalAlign=top;html=1;shape=mxgraph.flowchart.summing_function;" parent="1" vertex="1">
          <mxGeometry x="750" y="720" width="70" height="70" as="geometry" />
        </mxCell>
        <mxCell id="Uqcx5umUWvrtVey-KFYX-15" value="" style="verticalLabelPosition=bottom;verticalAlign=top;html=1;shape=mxgraph.flowchart.or;" parent="1" vertex="1">
          <mxGeometry x="979" y="960" width="70" height="70" as="geometry" />
        </mxCell>
        <mxCell id="Uqcx5umUWvrtVey-KFYX-16" value="" style="verticalLabelPosition=bottom;verticalAlign=top;html=1;shape=mxgraph.flowchart.summing_function;" parent="1" vertex="1">
          <mxGeometry x="750" y="1040" width="70" height="70" as="geometry" />
        </mxCell>
        <mxCell id="Uqcx5umUWvrtVey-KFYX-17" value="" style="whiteSpace=wrap;html=1;aspect=fixed;" parent="1" vertex="1">
          <mxGeometry x="570" y="505" width="80" height="80" as="geometry" />
        </mxCell>
        <mxCell id="Uqcx5umUWvrtVey-KFYX-18" value="" style="whiteSpace=wrap;html=1;aspect=fixed;" parent="1" vertex="1">
          <mxGeometry x="570" y="720" width="80" height="80" as="geometry" />
        </mxCell>
        <mxCell id="Uqcx5umUWvrtVey-KFYX-19" style="edgeStyle=orthogonalEdgeStyle;rounded=0;orthogonalLoop=1;jettySize=auto;html=1;exitX=1;exitY=0.5;exitDx=0;exitDy=0;exitPerimeter=0;entryX=0;entryY=0.5;entryDx=0;entryDy=0;entryPerimeter=0;" parent="1" source="Uqcx5umUWvrtVey-KFYX-2" target="Uqcx5umUWvrtVey-KFYX-6" edge="1">
          <mxGeometry relative="1" as="geometry" />
        </mxCell>
      </root>
    </mxGraphModel>
  </diagram>
</mxfile>
